<svg xmlns="http://www.w3.org/2000/svg" viewBox="0 0 32 32" width="32" height="32">
  <defs>
    <linearGradient id="bg32" x1="0%" y1="0%" x2="100%" y2="100%">
      <stop offset="0%" style="stop-color:#ff6b9d"/>
      <stop offset="100%" style="stop-color:#c084fc"/>
    </linearGradient>
  </defs>
  <circle cx="16" cy="16" r="14" fill="url(#bg32)"/>
  <g transform="translate(16, 16)">
    <path d="M0,-8 Q3,-7 2,-3 Q1,-1 0,-1 Q-1,-1 -2,-3 Q-3,-7 0,-8" fill="white" transform="rotate(0)"/>
    <path d="M0,-8 Q3,-7 2,-3 Q1,-1 0,-1 Q-1,-1 -2,-3 Q-3,-7 0,-8" fill="white" transform="rotate(72)"/>
    <path d="M0,-8 Q3,-7 2,-3 Q1,-1 0,-1 Q-1,-1 -2,-3 Q-3,-7 0,-8" fill="white" transform="rotate(144)"/>
    <path d="M0,-8 Q3,-7 2,-3 Q1,-1 0,-1 Q-1,-1 -2,-3 Q-3,-7 0,-8" fill="white" transform="rotate(216)"/>
    <path d="M0,-8 Q3,-7 2,-3 Q1,-1 0,-1 Q-1,-1 -2,-3 Q-3,-7 0,-8" fill="white" transform="rotate(288)"/>
    <circle cx="0" cy="0" r="2" fill="#ffb6c1"/>
  </g>
</svg>
